<?xml version="1.0" encoding="UTF-8"?>
<svg xmlns="http://www.w3.org/2000/svg" xmlns:xlink="http://www.w3.org/1999/xlink" width="512" height="512" viewBox="0 0 58 58" version="1.1"><!-- Generator: Sketch 51.3 (57544) - http://www.bohemiancoding.com/sketch --><title>004 - Cone</title><desc>Created with Sketch.</desc><defs/><g id="Page-1" stroke="none" stroke-width="1" fill="none" fill-rule="evenodd"><g id="004---Cone" fill-rule="nonzero"><path d="M41.88,37 L42.11,37 L57.29,42.14 C57.7150317,42.2585571 58.0066821,42.6487936 58,43.09 L58,47.09 C58.0046597,47.5125451 57.7390156,47.8908865 57.34,48.03 L30.76,57.69 C29.6261713,58.1085412 28.3789855,58.1014347 27.25,57.67 L0.64,47.92 C0.250832281,47.7773474 -0.00578611015,47.4044488 -5.72784008e-16,46.99 L-5.72784008e-16,42.99 C-0.00705503176,42.5464546 0.283832778,42.1531415 0.71,42.03 L15.9,36.95 L16.14,36.95 L41.88,37 Z" id="Shape" fill="#F29C1F"/><path d="M43,42 C43,44.21 36.73,46 29,46 C21.27,46 15,44.21 15,42 L16.14,36.95 L17.11,32.62 L19.19,23.39 L21.63,12.52 L24,2 C24,0.9 25.13,0 29,0 C32.87,0 34,0.9 34,2 L36.37,12.52 L38.81,23.39 L40.89,32.62 L41.88,37 L43,42 Z" id="Shape" fill="#E57E25"/><path d="M43,42 C43,44.21 36.73,46 29,46 C21.27,46 15,44.21 15,42 L16.14,36.95 L17.11,32.62 C19.13,33.93 23.69,34.84 29,34.84 C34.31,34.84 38.87,33.93 40.89,32.62 L41.88,37 L43,42 Z" id="Shape" fill="#E6E7E8"/><path d="M38.81,23.39 C36.83,24.36 33.17,25 29,25 C24.83,25 21.17,24.36 19.19,23.39 L21.63,12.52 C24.0013581,13.3234595 26.4973793,13.6959999 29,13.62 C31.5026207,13.6959999 33.9986419,13.3234595 36.37,12.52 L38.81,23.39 Z" id="Shape" fill="#E6E7E8"/><path d="M58,43.09 L58,47.09 C58.0046597,47.5125451 57.7390156,47.8908865 57.34,48.03 L30.76,57.69 C29.6261713,58.1085412 28.3789855,58.1014347 27.25,57.67 L0.64,47.92 C0.250832281,47.7773474 -0.00578611015,47.4044488 -2.62084191e-15,46.99 L-9.58640424e-05,42.99 C-0.00578611015,43.4044488 0.250832281,43.7773474 0.64,43.92 L27.25,53.67 C28.3789855,54.1014347 29.6261713,54.1085412 30.76,53.69 L54.07,45.22 L54.08,45.22 L57.34,44.03 C57.7390156,43.8908865 58.0046597,43.5125451 58,43.09 Z" id="Shape" fill="#E57E25"/><ellipse id="Oval" fill="#F29C1F" cx="29" cy="2" rx="5" ry="2"/></g></g></svg>
