<?xml version="1.0" standalone="no"?>
<!DOCTYPE svg PUBLIC "-//W3C//DTD SVG 20010904//EN"
 "http://www.w3.org/TR/2001/REC-SVG-20010904/DTD/svg10.dtd">
<svg version="1.0" xmlns="http://www.w3.org/2000/svg"
 width="387.000000pt" height="387.000000pt" viewBox="0 0 387.000000 387.000000"
 preserveAspectRatio="xMidYMid meet">
<metadata>
Created by potrace 1.14, written by Peter Selinger 2001-2017
</metadata>
<g transform="translate(0.000000,387.000000) scale(0.100000,-0.100000)"
fill="#000000" stroke="none">
<path d="M1768 3866 c-1 -2 -28 -6 -58 -9 -494 -54 -986 -330 -1297 -727 -103
-132 -220 -336 -280 -485 -48 -122 -103 -342 -120 -485 -10 -80 -9 -395 1
-470 12 -89 54 -270 82 -351 14 -40 29 -88 34 -104 37 -118 214 -418 320 -541
67 -78 236 -241 295 -284 33 -25 62 -47 65 -50 18 -18 142 -92 235 -141 214
-111 443 -181 680 -208 76 -9 398 -7 440 2 11 2 41 7 66 11 270 39 553 150
786 309 106 72 136 96 236 187 44 39 170 177 218 237 35 44 123 179 151 232
16 30 33 60 37 66 4 5 20 39 35 75 15 36 34 79 41 95 38 89 99 311 111 407 3
24 9 68 14 98 9 62 6 379 -5 455 -69 497 -328 954 -710 1257 -124 98 -106 85
-197 141 -205 127 -488 231 -713 263 -16 2 -41 6 -55 10 -26 6 -405 15 -412
10z"/>
</g>
</svg>
