<?xml version="1.0" encoding="iso-8859-1"?>
<!-- Generator: Adobe Illustrator 19.0.0, SVG Export Plug-In . SVG Version: 6.00 Build 0)  -->
<svg version="1.1" id="Capa_1" xmlns="http://www.w3.org/2000/svg" xmlns:xlink="http://www.w3.org/1999/xlink" x="0px" y="0px"
	 viewBox="0 0 512 512" style="enable-background:new 0 0 512 512;" xml:space="preserve">
<g style="opacity:0.08;">
	<path d="M129.051,512c-74.5,0-124.56-50.059-124.56-124.56V151.507c0-74.5,50.059-124.56,124.56-124.56h253.898
		c74.5,0,124.56,50.059,124.56,124.56V387.44c0,74.5-50.059,124.56-124.56,124.56H129.051z"/>
</g>
<linearGradient id="SVGID_1_" gradientUnits="userSpaceOnUse" x1="-15.0449" y1="581.5254" x2="-15.0449" y2="635.5254" gradientTransform="matrix(8.9825 0 0 -8.9825 391.1404 5726.5439)">
	<stop  offset="0" style="stop-color:#ECECEC"/>
	<stop  offset="1" style="stop-color:#FFFFFF"/>
</linearGradient>
<path style="fill:url(#SVGID_1_);" d="M129.051,503.018c-74.5,0-124.56-50.059-124.56-124.56V142.525
	c0-74.5,50.059-124.56,124.56-124.56h253.898c74.5,0,124.56,50.059,124.56,124.56v235.933c0,74.5-50.059,124.56-124.56,124.56
	H129.051z"/>
<path style="fill:#F4413D;" d="M4.491,143.719v-1.195c0-74.5,50.059-124.56,124.56-124.56h253.898
	c74.5,0,124.56,50.059,124.56,124.56v1.195H4.491z"/>
<g style="opacity:0.16;">
	
		<linearGradient id="SVGID_2_" gradientUnits="userSpaceOnUse" x1="-15.0449" y1="581.5254" x2="-15.0449" y2="635.5254" gradientTransform="matrix(8.9825 0 0 -8.9825 391.1404 5726.5439)">
		<stop  offset="0" style="stop-color:#000000"/>
		<stop  offset="0.06" style="stop-color:#000000;stop-opacity:0"/>
	</linearGradient>
	<path style="fill:url(#SVGID_2_);" d="M382.949,17.965H129.051c-74.5,0-124.56,50.059-124.56,124.56v235.933
		c0,74.5,50.059,124.56,124.56,124.56h253.898c74.5,0,124.56-50.059,124.56-124.56V142.525
		C507.509,68.024,457.45,17.965,382.949,17.965z M489.544,378.458c0,64.755-41.84,106.595-106.595,106.595H129.051
		c-64.755,0-106.595-41.84-106.595-106.595V142.525c0-64.755,41.84-106.595,106.595-106.595h253.898
		c64.755,0,106.595,41.84,106.595,106.595V378.458z"/>
</g>
<g>
	<path style="fill:#413D3D;" d="M180.332,295.397h20.633c23.211,0,39.172-14.246,39.172-34.017c0-19.16-14.489-32.669-38.436-32.669
		c-21.98,0-37.583,13.267-39.424,32.912h-16.213c2.084-28.492,24.441-47.652,56.365-47.652c31.196,0,54.649,19.034,54.649,45.316
		c0,22.232-14.372,38.193-36.963,42.244v0.494c27.136,1.599,44.58,18.423,44.58,43.475c0,29.965-26.768,51.335-61.278,51.335
		c-35.741,0-59.931-20.39-61.036-48.757h16.213c1.347,19.77,19.16,34.017,44.706,34.017c25.663,0,44.337-15.108,44.337-36.109
		c0-22.6-17.435-36.352-45.927-36.352h-21.369C180.332,309.643,180.332,295.397,180.332,295.397z"/>
	<path style="fill:#413D3D;" d="M335.441,234.604h-0.494c-2.82,1.716-33.522,23.947-47.526,32.669v-17.929
		c5.282-3.315,42.855-29.84,47.769-32.786h16.456v177.457h-16.213L335.441,234.604L335.441,234.604z"/>
</g>
<circle style="opacity:0.24;enable-background:new    ;" cx="121.263" cy="80.842" r="26.947"/>
<circle style="opacity:0.24;enable-background:new    ;" cx="390.737" cy="80.842" r="26.947"/>
<g style="opacity:0.16;">
	<path d="M382.949,17.965H129.051c-74.5,0-124.56,50.059-124.56,124.56v235.933c0,74.5,50.059,124.56,124.56,124.56h253.898
		c74.5,0,124.56-50.059,124.56-124.56V142.525C507.509,68.024,457.45,17.965,382.949,17.965z M498.526,378.458
		c0,69.129-46.448,115.577-115.577,115.577H129.051c-69.129,0-115.577-46.448-115.577-115.577V142.525
		c0-69.129,46.448-115.577,115.577-115.577h253.898c69.129,0,115.577,46.448,115.577,115.577V378.458z"/>
</g>
<g>
	
		<linearGradient id="SVGID_3_" gradientUnits="userSpaceOnUse" x1="-30.0449" y1="627.5254" x2="-30.0449" y2="637.5254" gradientTransform="matrix(8.9825 0 0 -8.9825 391.1404 5726.5439)">
		<stop  offset="0" style="stop-color:#FFFFFF"/>
		<stop  offset="1" style="stop-color:#DCDCDC"/>
	</linearGradient>
	<path style="fill:url(#SVGID_3_);" d="M121.263,89.825c-4.958,0-8.982-4.024-8.982-8.982V8.982c0-4.958,4.024-8.982,8.982-8.982
		c4.958,0,8.982,4.024,8.982,8.982v71.86C130.246,85.8,126.221,89.825,121.263,89.825z"/>
	
		<linearGradient id="SVGID_4_" gradientUnits="userSpaceOnUse" x1="-0.0449" y1="627.5254" x2="-0.0449" y2="637.5254" gradientTransform="matrix(8.9825 0 0 -8.9825 391.1404 5726.5439)">
		<stop  offset="0" style="stop-color:#FFFFFF"/>
		<stop  offset="1" style="stop-color:#DCDCDC"/>
	</linearGradient>
	<path style="fill:url(#SVGID_4_);" d="M390.737,89.825c-4.958,0-8.982-4.024-8.982-8.982V8.982c0-4.958,4.024-8.982,8.982-8.982
		c4.958,0,8.982,4.024,8.982,8.982v71.86C399.719,85.8,395.695,89.825,390.737,89.825z"/>
</g>
<g>
</g>
<g>
</g>
<g>
</g>
<g>
</g>
<g>
</g>
<g>
</g>
<g>
</g>
<g>
</g>
<g>
</g>
<g>
</g>
<g>
</g>
<g>
</g>
<g>
</g>
<g>
</g>
<g>
</g>
</svg>
