<svg width="1920" height="1080" viewBox="0 0 1920 1080" xmlns="http://www.w3.org/2000/svg"><rect width="1920" height="1080" fill="#ffffff"/><path d="M 0,1080 C 0,1080 0,216 0,216 C 82.90769230769234,194.0205128205128 165.8153846153847,172.04102564102564 280,170 C 394.1846153846153,167.95897435897436 539.6461538461537,185.8564102564103 653,208 C 766.3538461538463,230.1435897435897 847.6000000000001,256.5333333333333 948,240 C 1048.3999999999999,223.46666666666667 1167.953846153846,164.01025641025643 1269,170 C 1370.046153846154,175.98974358974357 1452.5846153846155,247.42564102564103 1558,266 C 1663.4153846153845,284.574358974359 1791.7076923076922,250.2871794871795 1920,216 C 1920,216 1920,1080 1920,1080 Z" fill="#ed9f31" opacity="0.12"/><path d="M 0,1080 C 0,1080 0,432 0,432 C 116.17692307692306,459.3051282051282 232.35384615384612,486.61025641025645 336,499 C 439.6461538461539,511.38974358974355 530.7615384615385,508.86410256410255 624,476 C 717.2384615384615,443.13589743589745 812.6,379.93333333333334 918,380 C 1023.4,380.06666666666666 1138.8384615384614,443.40256410256404 1247,441 C 1355.1615384615386,438.59743589743596 1456.0461538461539,370.4564102564103 1567,358 C 1677.9538461538461,345.5435897435897 1798.976923076923,388.77179487179484 1920,432 C 1920,432 1920,1080 1920,1080 Z" fill="#ed9f31" opacity="0.24"/><path d="M 0,1080 C 0,1080 0,648 0,648 C 99.17948717948715,611.8538461538461 198.3589743589743,575.7076923076922 321,605 C 443.6410256410257,634.2923076923078 589.7435897435897,729.023076923077 683,728 C 776.2564102564103,726.976923076923 816.6666666666667,630.1999999999999 906,592 C 995.3333333333333,553.8000000000001 1133.5897435897436,574.1769230769231 1264,610 C 1394.4102564102564,645.8230769230769 1516.974358974359,697.0923076923077 1625,706 C 1733.025641025641,714.9076923076923 1826.5128205128206,681.4538461538461 1920,648 C 1920,648 1920,1080 1920,1080 Z" fill="#ed9f31" opacity="0.36"/><path d="M 0,1080 C 0,1080 0,864 0,864 C 127.99230769230766,810.625641025641 255.98461538461532,757.251282051282 370,786 C 484.0153846153847,814.748717948718 584.0538461538463,925.6205128205129 688,939 C 791.9461538461537,952.3794871794871 899.8,868.2666666666668 1000,840 C 1100.2,811.7333333333332 1192.7461538461537,839.3128205128204 1280,866 C 1367.2538461538463,892.6871794871796 1449.2153846153847,918.4820512820513 1555,918 C 1660.7846153846153,917.5179487179487 1790.3923076923077,890.7589743589743 1920,864 C 1920,864 1920,1080 1920,1080 Z" fill="#ed9f31" opacity="0.48"/></svg>