<?xml version="1.0"?>
<svg xmlns="http://www.w3.org/2000/svg" id="Layer_1" data-name="Layer 1" viewBox="0 0 64 64" width="512" height="512"><path d="M47.14,6A21.83,21.83,0,0,0,30.81,0,22.26,22.26,0,0,0,10,22a21.86,21.86,0,0,0,3.67,12.16A2,2,0,1,0,17,31.93,17.87,17.87,0,0,1,14,22,18.19,18.19,0,0,1,31,4,18,18,0,0,1,41.8,37.08,6,6,0,0,0,39,42.13V43a2,2,0,0,1-2,2H27a2,2,0,0,1-2-2v-.87a6,6,0,0,0-2.8-5.05A2,2,0,1,0,20,40.43a2.07,2.07,0,0,1,1,1.7V43a6,6,0,0,0,1.54,4A6,6,0,0,0,26,56.91V58a6,6,0,0,0,12,0V56.91A6,6,0,0,0,41.46,47,6,6,0,0,0,43,43v-.87a2.07,2.07,0,0,1,1-1.7A22,22,0,0,0,47.14,6ZM34,58a2,2,0,0,1-4,0V57h4Zm3-5H27a2,2,0,0,1,0-4H37a2,2,0,0,1,0,4Z"/><path d="M39.85,28.17a2,2,0,1,0,2.81-.32A2,2,0,0,0,39.85,28.17Z"/><path d="M46,22A14,14,0,0,0,31.23,8a2,2,0,0,0-1.89,2.1A2,2,0,0,0,31.44,12,10,10,0,0,1,42,22a2,2,0,0,0,4,0Z"/><path d="M8.25,7.14l-1.73-1a2,2,0,0,0-2,3.46l1.73,1A2,2,0,0,0,9,9.87,2,2,0,0,0,8.25,7.14Z"/><path d="M6.25,35.4l-1.73,1a2,2,0,0,0,1,3.73,1.91,1.91,0,0,0,1-.27l1.73-1a2,2,0,1,0-2-3.46Z"/><path d="M62,21H60a2,2,0,0,0,0,4h2a2,2,0,0,0,0-4Z"/><path d="M56.75,10.87a2,2,0,0,0,1-.27l1.73-1a2,2,0,0,0-2-3.46l-1.73,1a2,2,0,0,0,1,3.73Z"/><path d="M59.48,36.4l-1.73-1a2,2,0,1,0-2,3.46l1.73,1a1.91,1.91,0,0,0,1,.27,2,2,0,0,0,1-3.73Z"/><path d="M6,23a2,2,0,0,0-2-2H2a2,2,0,0,0,0,4H4A2,2,0,0,0,6,23Z"/></svg>
