<svg width="100%" height="100%" id="svg" viewBox="0 0 1440 600" xmlns="http://www.w3.org/2000/svg" class="transition duration-300 ease-in-out delay-150"><defs><linearGradient id="gradient" x1="0%" y1="50%" x2="100%" y2="50%"><stop offset="5%" stop-color="#002bdc"></stop><stop offset="95%" stop-color="#32ded4"></stop></linearGradient></defs><path d="M 0,600 C 0,600 0,200 0,200 C 109.33014354066987,206.67942583732057 218.66028708133973,213.35885167464113 305,215 C 391.33971291866027,216.64114832535887 454.6889952153109,213.244019138756 537,221 C 619.3110047846891,228.755980861244 720.5837320574163,247.66507177033495 827,251 C 933.4162679425837,254.33492822966505 1044.976076555024,242.0956937799043 1148,231 C 1251.023923444976,219.9043062200957 1345.511961722488,209.95215311004785 1440,200 C 1440,200 1440,600 1440,600 Z" stroke="none" stroke-width="0" fill="url(#gradient)" fill-opacity="0.53" class="transition-all duration-300 ease-in-out delay-150 path-0"></path><defs><linearGradient id="gradient" x1="0%" y1="50%" x2="100%" y2="50%"><stop offset="5%" stop-color="#002bdc"></stop><stop offset="95%" stop-color="#32ded4"></stop></linearGradient></defs><path d="M 0,600 C 0,600 0,400 0,400 C 98.71770334928229,421.61722488038276 197.43540669856458,443.23444976076553 292,422 C 386.5645933014354,400.76555023923447 476.97607655502406,336.6794258373206 569,340 C 661.0239234449759,343.3205741626794 754.6602870813397,414.0478468899521 856,425 C 957.3397129186603,435.9521531100479 1066.3827751196172,387.12918660287085 1165,373 C 1263.6172248803828,358.87081339712915 1351.8086124401914,379.4354066985646 1440,400 C 1440,400 1440,600 1440,600 Z" stroke="none" stroke-width="0" fill="url(#gradient)" fill-opacity="1" class="transition-all duration-300 ease-in-out delay-150 path-1"></path></svg>